<svg width="512" height="502" viewBox="0 0 512 502" fill="none" xmlns="http://www.w3.org/2000/svg">
<path d="M255.968 0.32901C114.624 0.32901 0 115.401 0 257.353C0 370.889 73.344 467.209 175.104 501.225C187.904 503.593 192.576 495.657 192.576 488.841C192.576 482.729 192.352 466.569 192.224 445.129C121.024 460.649 105.984 410.665 105.984 410.665C94.368 380.969 77.568 373.065 77.568 373.065C54.304 357.129 79.296 357.449 79.296 357.449C104.992 359.273 118.496 383.945 118.496 383.945C141.344 423.209 178.432 411.881 193.024 405.289C195.328 388.681 201.952 377.353 209.28 370.921C152.448 364.425 92.672 342.377 92.672 243.913C92.672 215.849 102.656 192.905 119.04 174.921C116.384 168.425 107.616 142.281 121.536 106.921C121.536 106.921 143.04 100.009 191.936 133.257C212.352 127.561 234.24 124.713 256.032 124.617C277.76 124.745 299.68 127.561 320.128 133.289C368.992 100.041 390.464 106.953 390.464 106.953C404.416 142.345 395.648 168.457 393.024 174.953C409.44 192.937 419.328 215.881 419.328 243.945C419.328 342.665 359.488 364.393 302.464 370.761C311.648 378.697 319.84 394.377 319.84 418.345C319.84 452.713 319.52 480.425 319.52 488.841C319.52 495.721 324.128 503.721 337.12 501.193C438.72 467.145 512 370.857 512 257.353C512 115.401 397.376 0.32901 255.968 0.32901Z" fill="black"/>
</svg>
