<svg width="414" height="414" viewBox="0 0 414 414" fill="none" xmlns="http://www.w3.org/2000/svg">
<path d="M367 389.305H47C21.0859 389.305 0 368.219 0 342.305V71C0 45.0859 21.0859 24 47 24H367C392.914 24 414 45.0859 414 71V342.305C414 368.219 392.914 389.305 367 389.305ZM47 38C28.8047 38 14 52.8047 14 71V342.305C14 360.5 28.8047 375.305 47 375.305H367C385.195 375.305 400 360.5 400 342.305V71C400 52.8047 385.195 38 367 38H47Z" fill="black"/>
<path d="M350.82 282.434H240.824C236.957 282.434 233.824 279.301 233.824 275.434C233.824 271.57 236.957 268.434 240.824 268.434H350.82C354.684 268.434 357.82 271.57 357.82 275.434C357.82 279.301 354.688 282.434 350.82 282.434Z" fill="black"/>
<path d="M350.82 333.043H240.824C236.957 333.043 233.824 329.91 233.824 326.043C233.824 322.18 236.957 319.043 240.824 319.043H350.82C354.684 319.043 357.82 322.18 357.82 326.043C357.82 329.91 354.688 333.043 350.82 333.043Z" fill="black"/>
<path d="M350.82 181.215H240.824C236.957 181.215 233.824 178.082 233.824 174.215C233.824 170.352 236.957 167.215 240.824 167.215H350.82C354.684 167.215 357.82 170.352 357.82 174.215C357.82 178.082 354.688 181.215 350.82 181.215Z" fill="black"/>
<path d="M350.82 231.824H240.824C236.957 231.824 233.824 228.691 233.824 224.824C233.824 220.961 236.957 217.824 240.824 217.824H350.82C354.684 217.824 357.82 220.961 357.82 224.824C357.82 228.691 354.688 231.824 350.82 231.824Z" fill="black"/>
<path d="M407 117.73H7C3.13281 117.73 0 114.598 0 110.73C0 106.863 3.13281 103.73 7 103.73H407C410.867 103.73 414 106.863 414 110.73C414 114.598 410.867 117.73 407 117.73Z" fill="black"/>
<path d="M100.914 92.7812C88.9023 92.7812 79.1289 83.0117 79.1289 71C79.1289 58.9883 88.9023 49.2188 100.914 49.2188C112.926 49.2188 122.695 58.9883 122.695 71C122.695 83.0117 112.926 92.7812 100.914 92.7812ZM100.914 63.2188C96.6211 63.2188 93.1289 66.7109 93.1289 71C93.1289 75.2891 96.6211 78.7812 100.914 78.7812C105.203 78.7812 108.695 75.2891 108.695 71C108.695 66.7109 105.203 63.2188 100.914 63.2188Z" fill="black"/>
<path d="M50.4766 92.7812C38.4688 92.7812 28.6953 83.0117 28.6953 71C28.6953 58.9883 38.4688 49.2188 50.4766 49.2188C62.4883 49.2188 72.2617 58.9883 72.2617 71C72.2617 83.0117 62.4883 92.7812 50.4766 92.7812ZM50.4766 63.2188C46.1875 63.2188 42.6953 66.7109 42.6953 71C42.6953 75.2891 46.1875 78.7812 50.4766 78.7812C54.7695 78.7812 58.2617 75.2891 58.2617 71C58.2617 66.7109 54.7695 63.2188 50.4766 63.2188Z" fill="black"/>
<path d="M151.348 92.7812C139.336 92.7812 129.566 83.0117 129.566 71C129.566 58.9883 139.336 49.2188 151.348 49.2188C163.359 49.2188 173.133 58.9883 173.133 71C173.133 83.0117 163.359 92.7812 151.348 92.7812ZM151.348 63.2188C147.055 63.2188 143.566 66.7109 143.566 71C143.566 75.2891 147.059 78.7812 151.348 78.7812C155.641 78.7812 159.133 75.2891 159.133 71C159.133 66.7109 155.641 63.2188 151.348 63.2188Z" fill="black"/>
<path d="M188 333.043H61C57.1328 333.043 54 329.91 54 326.043V174.215C54 170.352 57.1328 167.215 61 167.215H188C191.867 167.215 195 170.352 195 174.215V326.043C195 329.91 191.867 333.043 188 333.043ZM68 319.043H181V181.215H68V319.043Z" fill="black"/>
</svg>
